<?xml version="1.0" encoding="iso-8859-1"?>
<!-- Generator: Adobe Illustrator 19.0.0, SVG Export Plug-In . SVG Version: 6.00 Build 0)  -->
<svg version="1.1" id="Capa_1" xmlns="http://www.w3.org/2000/svg" xmlns:xlink="http://www.w3.org/1999/xlink" x="0px" y="0px"
	 viewBox="0 0 511.998 511.998" style="enable-background:new 0 0 511.998 511.998;" xml:space="preserve">
<path style="fill:#D4AB73;" d="M428.583,48.724c-18.661-3.202-36.339,1.57-51.67,10.845c45.238,28.492,75.29,78.874,75.29,136.286
	c0,45.417-18.817,86.434-49.072,115.697l44.354,15.254c5.078-12.336,14.179-34.122,21.993-47.269
	C524.516,186.937,508.853,62.496,428.583,48.724z"/>
<circle style="fill:#C7C6C4;" cx="291.249" cy="195.851" r="111.206"/>
<path style="fill:#D4AB73;" d="M398.412,166.138c-12.351-44.54-50.114-75.195-93.271-80.647
	c-21.412,45.384-31.343,99.185-29.466,136.663c0.843,16.831-0.221,51.543-0.82,74.747l27.851,9.579
	c6.074-0.636,12.176-1.775,18.255-3.46C380.148,286.608,414.824,225.325,398.412,166.138z"/>
<path d="M321.567,174.652c-0.66,0-1.311-0.07-1.96-0.2c-0.641-0.13-1.27-0.32-1.87-0.57c-0.601-0.25-1.181-0.56-1.73-0.92
	c-0.54-0.36-1.06-0.78-1.52-1.24c-0.46-0.46-0.88-0.98-1.24-1.52c-0.36-0.54-0.67-1.13-0.92-1.73c-0.25-0.6-0.44-1.23-0.57-1.87
	c-0.13-0.64-0.2-1.3-0.2-1.95c0-0.65,0.07-1.31,0.2-1.96c0.13-0.64,0.32-1.27,0.57-1.87c0.25-0.6,0.56-1.18,0.92-1.73
	c0.36-0.54,0.78-1.05,1.24-1.52c0.46-0.46,0.979-0.87,1.52-1.24c0.55-0.36,1.13-0.67,1.73-0.92s1.229-0.44,1.87-0.57
	c3.25-0.65,6.699,0.41,9.029,2.73c0.46,0.47,0.87,0.98,1.24,1.52c0.36,0.55,0.67,1.13,0.92,1.73c0.25,0.6,0.44,1.23,0.57,1.87
	c0.13,0.65,0.2,1.31,0.2,1.96s-0.07,1.31-0.2,1.95c-0.13,0.64-0.32,1.27-0.57,1.87s-0.56,1.19-0.92,1.73
	c-0.37,0.54-0.78,1.06-1.24,1.52C326.768,173.582,324.197,174.652,321.567,174.652z"/>
<path style="fill:#2C68A3;" d="M291.247,34.897c-88.894,0-160.957,72.063-160.957,160.957s72.063,160.957,160.957,160.957
	s160.957-72.063,160.957-160.957S380.141,34.897,291.247,34.897z M320.961,303.02c-59.186,16.411-120.469-18.265-136.881-77.451
	S202.346,105.1,261.532,88.688s120.469,18.264,136.881,77.451C414.824,225.325,380.148,286.608,320.961,303.02z"/>
<path style="fill:#A8805D;" d="M291.247,356.811c-0.233,0-0.464-0.008-0.697-0.009c-10.374,34.847-6.844,71.361,21.343,89.354
	c34.084,21.756,68.113,10.403,87.178-19.079c12.713-19.659,20.517-38.756,27.593-58.092l-72.505-24.936
	C334.832,352.263,313.571,356.811,291.247,356.811z"/>
<rect x="77.238" y="331.912" transform="matrix(-0.7071 -0.7071 0.7071 -0.7071 -41.9859 706.2455)" style="fill:#7A403F;" width="96.075" height="59.812"/>
<path style="fill:#D4AB73;" d="M159.726,353.98l31.789-31.789c-9.87-7.803-18.803-16.735-26.606-26.606l-31.789,31.789
	L159.726,353.98z"/>
<path style="fill:#965051;" d="M70.16,349.002l-46.089,46.089c-18.76,18.76-18.76,49.178,0,67.938l0,0
	c18.76,18.76,49.178,18.76,67.938,0l46.089-46.089L70.16,349.002z"/>
<path d="M51.368,445.731c-0.65,0-1.311-0.07-1.95-0.2c-0.64-0.13-1.271-0.32-1.87-0.57c-0.6-0.25-1.18-0.56-1.73-0.92
	c-0.539-0.36-1.05-0.78-1.52-1.24c-0.46-0.46-0.88-0.97-1.24-1.52c-0.359-0.54-0.67-1.12-0.92-1.73c-0.25-0.6-0.439-1.23-0.57-1.87
	c-0.13-0.64-0.189-1.3-0.189-1.95c0-0.66,0.06-1.31,0.189-1.96c0.131-0.64,0.32-1.26,0.57-1.87c0.25-0.6,0.561-1.18,0.92-1.72
	c0.36-0.55,0.78-1.06,1.24-1.52c0.47-0.46,0.981-0.88,1.52-1.25c0.551-0.36,1.131-0.67,1.73-0.92c0.6-0.25,1.231-0.44,1.87-0.57
	c1.29-0.26,2.62-0.26,3.91,0c0.64,0.13,1.27,0.32,1.87,0.57c0.6,0.25,1.18,0.56,1.72,0.92c0.55,0.37,1.06,0.79,1.52,1.25
	c0.471,0.46,0.88,0.97,1.25,1.52c0.36,0.54,0.67,1.12,0.92,1.72c0.25,0.61,0.44,1.24,0.57,1.87c0.13,0.65,0.19,1.3,0.19,1.96
	c0,0.65-0.061,1.31-0.19,1.95c-0.13,0.64-0.32,1.27-0.57,1.87c-0.25,0.61-0.56,1.19-0.92,1.73c-0.37,0.55-0.779,1.06-1.25,1.52
	c-0.46,0.46-0.97,0.88-1.52,1.24c-0.54,0.36-1.12,0.67-1.72,0.92c-0.601,0.25-1.23,0.44-1.87,0.57
	C52.678,445.661,52.018,445.731,51.368,445.731z"/>
<path d="M498.08,93.853c-14.21-30.799-37.657-49.812-67.803-54.985c-17.763-3.048-36.046,0.135-53.23,9.169
	c-25.233-14.703-54.548-23.139-85.8-23.139c-94.265,0-170.956,76.691-170.956,170.956c0,36.753,11.66,70.831,31.471,98.737
	l-18.641,18.641l-13.595-13.595c-3.906-3.905-10.236-3.905-14.141,0l-42.294,42.294c-0.003,0.003-0.005,0.006-0.008,0.008
	l-46.081,46.081C6.037,398.983,0,413.559,0,429.061c0,15.503,6.037,30.078,16.999,41.04c10.963,10.963,25.538,16.999,41.039,16.999
	c15.503,0,30.078-6.037,41.04-16.999l46.09-46.089c0.001-0.001,0.002-0.002,0.003-0.003l42.291-42.291
	c1.875-1.875,2.929-4.419,2.929-7.071c0-2.652-1.054-5.196-2.929-7.071l-13.595-13.595l18.641-18.641
	c24.48,17.379,53.712,28.483,85.331,30.947c-8.111,38.947,2.216,71.41,28.672,88.298c13.402,8.555,27.393,12.907,41.179,12.907
	c5.331-0.001,10.634-0.652,15.857-1.963c17.371-4.362,32.968-16.088,43.917-33.022c12.615-19.506,20.551-38.128,28.586-60.086
	c0.924-2.522,0.793-5.31-0.361-7.735c-1.156-2.425-3.237-4.284-5.778-5.158L379.529,342.2c9.258-5.606,17.939-12.067,25.943-19.269
	l38.76,13.33c1.075,0.37,2.172,0.545,3.251,0.545c3.947,0,7.665-2.353,9.247-6.195c3.684-8.948,13.467-32.717,21.343-45.966
	c0.453-0.763,0.883-1.539,1.328-2.307c0.236-0.355,0.446-0.721,0.632-1.097c16.838-29.424,27.496-62.521,30.842-95.995
	C514.296,151.013,509.872,119.41,498.08,93.853z M426.893,58.579c29.517,5.065,45.128,26.534,53.027,43.652
	c3.942,8.544,6.886,17.915,8.877,27.856l-24.103,2.682c-3.104,0.351-6.167-0.705-8.404-2.893l-13.271-12.951
	c-11.141-21.433-26.847-40.456-46.384-55.711C406.667,57.734,416.8,56.846,426.893,58.579z M112.454,320.85l13.59,13.59
	c0.001,0.002,0.003,0.004,0.004,0.005l6.233,6.232l-28.152,28.152l-19.827-19.827L112.454,320.85z M84.937,455.96
	c-7.184,7.185-16.736,11.142-26.898,11.142c-10.161,0-19.713-3.957-26.897-11.142c-7.186-7.186-11.143-16.737-11.143-26.899
	c0-10.161,3.957-19.713,11.143-26.898l39.017-39.018l19.828,19.827l-17.19,17.19c-3.905,3.905-3.905,10.237,0,14.141
	c1.953,1.953,4.512,2.929,7.071,2.929c2.56,0,5.119-0.976,7.072-2.929l17.189-17.189l19.827,19.827L84.937,455.96z M138.099,402.799
	l-19.828-19.827l28.153-28.152l6.232,6.232l13.595,13.595L138.099,402.799z M159.727,339.838l-12.465-12.465l17.031-17.032
	c3.94,4.364,8.102,8.526,12.466,12.465L159.727,339.838z M413.691,375.097c-6.432,16.655-13.24,31.431-23.017,46.549
	c-17.499,27.061-46.311,33.372-73.4,16.08c-27.2-17.362-23.136-53.114-18.985-71.057c0.408-0.016,0.814-0.043,1.222-0.062
	c0.343-0.017,0.686-0.034,1.029-0.052c1.184-0.063,2.366-0.138,3.546-0.225c0.145-0.011,0.29-0.02,0.435-0.031
	c17.196-1.314,33.938-5.182,49.955-11.567L413.691,375.097z M295.142,346.761c-0.002,0-0.004,0-0.006,0
	c-1.293,0.033-2.59,0.049-3.891,0.049l-0.654-0.009c-0.013,0-0.025,0-0.038,0c-82.92-0.375-150.264-67.941-150.264-150.948
	c0-83.239,67.719-150.957,150.957-150.957c77.734,0,141.925,59.062,150.076,134.667c0.036,0.34,0.079,0.678,0.113,1.019
	c0.078,0.776,0.142,1.557,0.208,2.337c0.061,0.726,0.122,1.452,0.173,2.18c0.047,0.672,0.09,1.345,0.128,2.02
	c0.05,0.888,0.092,1.779,0.127,2.67c0.022,0.56,0.048,1.119,0.064,1.681c0.038,1.347,0.061,2.697,0.064,4.051
	c0,0.112,0.004,0.222,0.004,0.334C442.204,277.789,376.587,344.687,295.142,346.761z M441.859,314.295l-20.819-7.161
	c8.349-9.695,15.504-20.175,21.398-31.269l7.08-0.79c3.116-0.347,6.184,0.711,8.414,2.887l0.602,0.587
	C452.913,288.778,447.007,302.072,441.859,314.295z M468.353,260.689c-4.859-3.483-10.618-5.441-16.606-5.648
	c4.885-13.274,8.101-27.197,9.556-41.52l9.76-1.089c3.112-0.344,6.182,0.71,8.414,2.887l4.537,4.433
	C480.161,233.74,474.913,247.542,468.353,260.689z M488.962,197.402c-5.874-3.887-12.942-5.64-20.105-4.849l-6.686,0.747
	c-0.01-0.696-0.014-1.394-0.032-2.088c-0.019-0.692-0.053-1.382-0.079-2.073c-0.033-0.842-0.063-1.685-0.108-2.525
	c-0.045-0.849-0.104-1.695-0.162-2.541c-0.044-0.647-0.087-1.295-0.138-1.94c-0.079-0.993-0.169-1.982-0.265-2.971
	c-0.043-0.443-0.086-0.886-0.133-1.327c-0.122-1.171-0.256-2.339-0.402-3.504c-0.021-0.164-0.042-0.328-0.064-0.492
	c-0.946-7.402-2.353-14.687-4.227-21.813c2.258,0.531,4.584,0.809,6.939,0.809c1.131,0,2.269-0.062,3.408-0.19l24.532-2.73
	C492.543,165.141,491.694,181.214,488.962,197.402z"/>
<path d="M291.285,317.076c4.116,0,8.259-0.217,12.414-0.648c0.017-0.002,0.033-0.001,0.05-0.003
	c0.144-0.015,0.288-0.039,0.433-0.055c1.39-0.15,2.782-0.326,4.174-0.525c0.379-0.055,0.758-0.116,1.137-0.174
	c1.196-0.183,2.391-0.384,3.587-0.604c0.423-0.078,0.846-0.156,1.268-0.238c1.175-0.229,2.35-0.479,3.525-0.744
	c0.395-0.089,0.791-0.171,1.185-0.264c1.527-0.361,3.054-0.744,4.579-1.167c28.274-7.84,52.248-25.232,68.361-49.397
	c1.667-2.5,3.25-5.072,4.745-7.714c15.943-28.178,19.96-60.879,11.31-92.077c-0.368-1.325-0.764-2.637-1.173-3.943
	c-0.09-0.288-0.181-0.575-0.273-0.862c-0.867-2.698-1.823-5.354-2.865-7.964c-0.042-0.105-0.083-0.209-0.126-0.314
	c-5.505-13.681-13.379-26.096-23.257-36.775c-0.232-0.251-0.465-0.501-0.698-0.75c-0.648-0.689-1.306-1.37-1.971-2.044
	c-0.72-0.732-1.452-1.451-2.19-2.164c-0.236-0.227-0.47-0.457-0.708-0.683c-11.484-10.924-25.09-19.557-40.12-25.306
	c-0.014-0.006-0.029-0.011-0.043-0.017c-0.888-0.339-1.776-0.675-2.673-0.994c-1.075-0.386-2.154-0.753-3.236-1.107
	c-0.197-0.064-0.395-0.125-0.592-0.188c-22.285-7.165-46.185-7.705-69.263-1.306c-64.404,17.857-102.273,84.784-84.416,149.188
	C189.312,281.855,238.173,317.076,291.285,317.076z M293.22,250.163c7.616,7.428,18.045,11.017,28.621,9.841l32.04-3.566
	c4.602-0.508,9.143,1.054,12.458,4.282l1.442,1.408c-0.456,0.528-0.918,1.05-1.383,1.567c-0.105,0.117-0.21,0.234-0.315,0.351
	c-8.673,9.555-19.077,17.317-30.742,22.931c-5.427,2.612-11.124,4.763-17.049,6.406c-1.076,0.298-2.16,0.574-3.247,0.837
	c-0.238,0.058-0.477,0.113-0.715,0.169c-1.028,0.241-2.06,0.47-3.096,0.679c-0.054,0.011-0.107,0.023-0.161,0.034
	c-1.157,0.231-2.318,0.442-3.482,0.633c-0.113,0.018-0.225,0.035-0.337,0.053c-1.048,0.169-2.099,0.32-3.151,0.456
	c-0.098,0.013-0.197,0.026-0.295,0.039l-18.761-6.453c0.396-14.933,0.852-32.173,0.932-46.739L293.22,250.163z M379.401,245.572
	c-7.535-6.855-17.565-10.142-27.729-9.012l-32.04,3.566c-4.599,0.51-9.135-1.05-12.447-4.279l-21.734-21.217
	c-0.389-36.014,9.331-80.803,25.632-118.049c2.319,0.462,4.61,1.003,6.87,1.619c0.05,0.014,0.101,0.029,0.151,0.043
	c0.926,0.254,1.844,0.526,2.759,0.805c0.492,0.151,0.983,0.307,1.473,0.466c0.43,0.138,0.857,0.28,1.284,0.423
	c5.993,2.037,11.84,4.645,17.468,7.83c7.332,4.149,14.024,9.112,19.982,14.764c0.053,0.051,0.106,0.102,0.159,0.153
	c0.683,0.651,1.353,1.313,2.016,1.981c0.5,0.507,1,1.013,1.489,1.53c0.219,0.23,0.432,0.465,0.649,0.697
	c0.572,0.616,1.139,1.236,1.696,1.866c0.107,0.121,0.214,0.241,0.321,0.362c7.496,8.566,13.583,18.449,17.895,29.331
	c-2.14-0.172-4.309-0.163-6.487,0.06l-27.954,1.516c-0.294-0.157-0.596-0.3-0.901-0.426c-0.6-0.25-1.229-0.44-1.87-0.57
	c-1.29-0.26-2.62-0.26-3.91,0c-0.63,0.13-1.26,0.32-1.871,0.57c-0.6,0.25-1.18,0.56-1.72,0.92c-0.55,0.37-1.06,0.78-1.519,1.24
	c-0.471,0.47-0.88,0.98-1.25,1.52c-0.361,0.55-0.67,1.13-0.92,1.73c-0.25,0.6-0.441,1.23-0.571,1.87c-0.129,0.65-0.19,1.3-0.19,1.96
	c0,2.63,1.061,5.2,2.931,7.07c0.46,0.46,0.969,0.88,1.519,1.24c0.54,0.36,1.12,0.67,1.72,0.92c0.611,0.25,1.241,0.44,1.871,0.57
	c0.633,0.127,1.275,0.194,1.909,0.198c1.566,0.846,3.371,1.294,5.274,1.191l28.792-1.562c0.187-0.01,0.374-0.025,0.56-0.046
	c3.841-0.425,7.622,0.609,10.701,2.833C394.681,203.366,390.555,225.798,379.401,245.572z M264.204,98.324
	c8.591-2.382,17.316-3.6,26-3.704c-16.934,41.195-26.421,89.978-24.516,128.034c0.739,14.77-0.057,44.799-0.638,66.725l-0.11,4.175
	c-33.39-9.051-61.327-34.973-71.222-70.657C178.806,169.118,210.427,113.235,264.204,98.324z"/>
<g>
</g>
<g>
</g>
<g>
</g>
<g>
</g>
<g>
</g>
<g>
</g>
<g>
</g>
<g>
</g>
<g>
</g>
<g>
</g>
<g>
</g>
<g>
</g>
<g>
</g>
<g>
</g>
<g>
</g>
</svg>
